P2
# this is a comment
3 2
255
85 85 85
170 255 0
